{
  "accessors": [
    {
      "bufferView": 0,
      "componentType": 5126,
      "count": 80994,
      "max": [
        0.0611339993774891,
        0.0808930024504662,
        0.0429829992353916
      ],
      "min": [
        -0.0611369982361794,
        -0.080874003469944,
        -0.0429840013384819
      ],
      "type": "VEC3"
    },
    {
      "bufferView": 1,
      "componentType": 5126,
      "count": 80994,
      "type": "VEC3"
    },
    {
      "bufferView": 2,
      "componentType": 5126,
      "count": 80994,
      "type": "VEC2"
    },
    {
      "bufferView": 3,
      "componentType": 5125,
      "count": 449997,
      "type": "SCALAR"
    }
  ],
  "asset": {
    "generator": "MeshSmith mesh conversion tool",
    "version": "2.0"
  },
  "bufferViews": [
    {
      "buffer": 0,
      "byteLength": 971928,
      "target": 34962
    },
    {
      "buffer": 0,
      "byteLength": 971928,
      "byteOffset": 971928,
      "target": 34962
    },
    {
      "buffer": 0,
      "byteLength": 647952,
      "byteOffset": 1943856,
      "target": 34962
    },
    {
      "buffer": 0,
      "byteLength": 1799988,
      "byteOffset": 2591808,
      "target": 34963
    }
  ],
  "buffers": [
    {
      "byteLength": 4391796,
      "uri": "Equus_quagga_burchelli-150k-4096.bin"
    }
  ],
  "images": [
    {
      "uri": "Equus_quagga_burchelli-150k-4096-diffuse.jpg"
    },
    {
      "uri": "Equus_quagga_burchelli-150k-4096-occlusion.jpg"
    },
    {
      "uri": "Equus_quagga_burchelli-150k-4096-normals.jpg"
    }
  ],
  "materials": [
    {
      "name": "default",
      "normalTexture": {
        "index": 2
      },
      "occlusionTexture": {
        "index": 1
      },
      "pbrMetallicRoughness": {
        "baseColorTexture": {
          "index": 0
        },
        "metallicFactor": 0.100000001490116,
        "roughnessFactor": 0.800000011920929
      }
    }
  ],
  "meshes": [
    {
      "primitives": [
        {
          "attributes": {
            "NORMAL": 1,
            "POSITION": 0,
            "TEXCOORD_0": 2
          },
          "indices": 3,
          "material": 0,
          "mode": 4
        }
      ]
    }
  ],
  "nodes": [
    {
      "mesh": 0
    }
  ],
  "scene": 0,
  "scenes": [
    {
      "nodes": [
        0
      ]
    }
  ],
  "textures": [
    {
      "source": 0
    },
    {
      "source": 1
    },
    {
      "source": 2
    }
  ]
}